# xmcd
#
# Track frame offsets: 
#        150
#        19570
#        45892
#        63760
#        83685
#        106455
#        124450
#        141475
#        158187
#
# Disc length: 2315 seconds
#
# Revision: 0
# Processed by: cddbd v1.5.2PL0 Copyright (c) Steve Scherf et al.
# Submitted via: ExactAudioCopy v1.0b1
#
DISCID=6e090909
DTITLE=Cuba Gooding - The 1st Cuba Gooding Album
DYEAR=1978
DGENRE=Funk
TTITLE0=Mind Pleaser
TTITLE1=All I Can Give You Is Love
TTITLE2=Where Would I Be Without You
TTITLE3=Hold On To What You Got
TTITLE4=Fool Of The Year
TTITLE5=We're In Love
TTITLE6=Ain't Nothin' To It
TTITLE7=Someone To Go Home To
TTITLE8=As Long As There's You
EXTD=
EXTT0=
EXTT1=
EXTT2=
EXTT3=
EXTT4=
EXTT5=
EXTT6=
EXTT7=
EXTT8=
PLAYORDER=
